<mxfile host="app.diagrams.net" modified="2024-04-19T16:03:14.638Z" agent="Mozilla/5.0 (Windows NT 10.0; Win64; x64) AppleWebKit/537.36 (KHTML, like Gecko) Chrome/123.0.0.0 Safari/537.36" version="24.2.5" etag="sWB2Oble4ITGA9Zy4M8h" type="github">
  <diagram name="Page-1" id="dYp_dvjBLGGW4SR1jxRT">
    <mxGraphModel>
      <root>
        <mxCell id="0" />
        <mxCell id="1" parent="0" />
      </root>
    </mxGraphModel>
  </diagram>
</mxfile>
